<svg xmlns="http://www.w3.org/2000/svg" width="230" height="36" viewBox="0 0 230 36">
  <path fill="#ffffff" d="M0.392 19.69c-.071-.304.29-.495.511-.274l11.68 11.68c.22.22.029.582-.274.511C6.41 30.22 1.78 25.59.392 19.69ZM0 15c-.006.091.028.179.093.243l16.67 16.67c.064.064.153.098.243.093.758-.047 1.502-.147 2.228-.296.245-.05.33-.351.153-.528L.823 12.62c-.177-.177-.477-.092-.527.153-.149.726-.249 1.47-.296 2.228ZM1.35 9.51c-.053.12-.026.26.066.352l20.73 20.73c.093.093.232.12.352.066.572-.255 1.125-.541 1.66-.859.177-.105.204-.348.059-.493L2.70 7.79c-.145-.145-.388-.118-.493.059-.317.534-.604 1.088-.859 1.66ZM4.05 5.78c-.118-.118-.126-.309-.014-.433C6.97 2.07 11.24 0 15.99 0c8.84 0 16 7.17 16 16.02 0 4.75-2.07 9.02-5.35 11.95-.125.112-.315.104-.433-.014L4.05 5.78Z" transform="translate(0, 2)"/>
  <line x1="42" y1="6" x2="42" y2="30" stroke="#6b7280" stroke-width="1.5"/>
  <text x="54" y="26" font-family="system-ui, -apple-system, sans-serif" font-size="24" font-weight="500" fill="#ffffff">Documentación</text>
</svg>
